<svg width="100" height="100" viewBox="0 0 100 100" fill="none" xmlns="http://www.w3.org/2000/svg">
<rect width="100" height="100" rx="50" fill="#161A2B"/>
<path fill-rule="evenodd" clip-rule="evenodd" d="M49.8244 23.618C50.4737 22.7244 51.7244 22.5263 52.618 23.1756C53.5116 23.8248 53.7097 25.0756 53.0605 25.9692L34.8391 51.0487C34.1899 51.9423 32.9392 52.1404 32.0455 51.4912C31.1519 50.8419 30.9538 49.5912 31.6031 48.6976L49.8244 23.618ZM66.0112 48.9752C66.6604 48.0816 67.9112 47.8835 68.8048 48.5327C69.6984 49.182 69.8965 50.4327 69.2473 51.3263L51.0259 76.4059C50.3767 77.2995 49.1259 77.4976 48.2323 76.8483C47.3387 76.1991 47.1406 74.9483 47.7898 74.0547L66.0112 48.9752ZM54.5397 44.3488C53.646 43.6996 52.3953 43.8977 51.746 44.7913L45.8682 52.8815C45.2189 53.7751 45.417 55.0258 46.3107 55.6751C47.2043 56.3243 48.455 56.1262 49.1043 55.2326L54.9821 47.1424C55.6314 46.2488 55.4333 44.9981 54.5397 44.3488Z" fill="url(#paint0_linear_2084_2620)"/>
<defs>
<linearGradient id="paint0_linear_2084_2620" x1="31" y1="23" x2="59" y2="64" gradientUnits="userSpaceOnUse">
<stop stop-color="#E7007A"/>
<stop offset="1" stop-color="#FF876D"/>
</linearGradient>
</defs>
</svg>
