<svg width="126" height="32" viewBox="0 0 126 32" fill="none" xmlns="http://www.w3.org/2000/svg">
<path d="M41.1477 22H48.3807V20.233H43.2557V10.3636H41.1477V22ZM50.1193 22H52.1761V13.2727H50.1193V22ZM51.1534 12.0341C51.8068 12.0341 52.3409 11.5341 52.3409 10.9205C52.3409 10.3011 51.8068 9.80114 51.1534 9.80114C50.4943 9.80114 49.9602 10.3011 49.9602 10.9205C49.9602 11.5341 50.4943 12.0341 51.1534 12.0341ZM61.1889 15.5795C60.9048 14.1023 59.723 13.1591 57.6776 13.1591C55.5753 13.1591 54.1435 14.1932 54.1491 15.8068C54.1435 17.0795 54.9276 17.9205 56.6037 18.267L58.0923 18.5795C58.8935 18.7557 59.2685 19.0795 59.2685 19.5739C59.2685 20.1705 58.6207 20.6193 57.6435 20.6193C56.7003 20.6193 56.0866 20.2102 55.9105 19.4261L53.9048 19.6193C54.1605 21.2216 55.5071 22.1705 57.6491 22.1705C59.831 22.1705 61.3707 21.0398 61.3764 19.3864C61.3707 18.142 60.5696 17.3807 58.9219 17.0227L57.4332 16.7045C56.5469 16.5057 56.1946 16.1989 56.2003 15.6932C56.1946 15.1023 56.848 14.6932 57.706 14.6932C58.6548 14.6932 59.1548 15.2102 59.3139 15.7841L61.1889 15.5795ZM67.4304 13.2727H65.7088V11.1818H63.652V13.2727H62.4134V14.8636H63.652V19.7159C63.6406 21.358 64.8338 22.1648 66.3793 22.1193C66.9645 22.1023 67.3679 21.9886 67.5895 21.9148L67.2429 20.3068C67.1293 20.3352 66.8963 20.3864 66.6406 20.3864C66.1236 20.3864 65.7088 20.2045 65.7088 19.375V14.8636H67.4304V13.2727ZM72.9205 22.1705C74.9545 22.1705 76.3523 21.1761 76.7159 19.6591L74.7955 19.4432C74.517 20.1818 73.8352 20.5682 72.9489 20.5682C71.6193 20.5682 70.7386 19.6932 70.7216 18.1989H76.8011V17.5682C76.8011 14.5057 74.9602 13.1591 72.8125 13.1591C70.3125 13.1591 68.6818 14.9943 68.6818 17.6875C68.6818 20.4261 70.2898 22.1705 72.9205 22.1705ZM70.7273 16.8125C70.7898 15.6989 71.6136 14.7614 72.8409 14.7614C74.0227 14.7614 74.8182 15.625 74.8295 16.8125H70.7273ZM80.598 16.8864C80.598 15.625 81.3594 14.8977 82.4446 14.8977C83.5071 14.8977 84.1435 15.5966 84.1435 16.7614V22H86.2003V16.4432C86.206 14.3523 85.0128 13.1591 83.2116 13.1591C81.9048 13.1591 81.0071 13.7841 80.6094 14.7557H80.5071V13.2727H78.5412V22H80.598V16.8864ZM101.913 10.3636H99.8168V18.2955H99.7145L94.2372 10.3636H92.3509V22H94.4588V14.0739H94.5554L100.038 22H101.913V10.3636ZM107.926 22.1705C110.483 22.1705 112.108 20.3693 112.108 17.6705C112.108 14.9659 110.483 13.1591 107.926 13.1591C105.369 13.1591 103.744 14.9659 103.744 17.6705C103.744 20.3693 105.369 22.1705 107.926 22.1705ZM107.938 20.5227C106.523 20.5227 105.83 19.2614 105.83 17.6648C105.83 16.0682 106.523 14.7898 107.938 14.7898C109.33 14.7898 110.023 16.0682 110.023 17.6648C110.023 19.2614 109.33 20.5227 107.938 20.5227ZM115.42 22H117.568L119.205 16.1023H119.324L120.96 22H123.102L125.574 13.2727H123.472L121.96 19.375H121.875L120.307 13.2727H118.233L116.665 19.4091H116.585L115.051 13.2727H112.955L115.42 22Z" fill="#503AE7"/>
<rect width="32" height="32" rx="16" fill="#503AE7"/>
<path d="M21.3334 16L12.4445 21.6452L12.4445 10.3548L21.3334 16Z" fill="white"/>
</svg>
