<svg width="77" height="13" viewBox="0 0 77 13" fill="none" xmlns="http://www.w3.org/2000/svg">
<path d="M0.147727 12H2.25568V7.73864H4.40341L6.6875 12H9.03977L6.52273 7.38636C7.89205 6.83523 8.61364 5.66477 8.61364 4.08523C8.61364 1.86364 7.18182 0.363636 4.51136 0.363636H0.147727V12ZM2.25568 5.98864V2.125H4.1875C5.76136 2.125 6.46591 2.84659 6.46591 4.08523C6.46591 5.32386 5.76136 5.98864 4.19886 5.98864H2.25568ZM14.2017 12.1705C16.2358 12.1705 17.6335 11.1761 17.9972 9.65909L16.0767 9.44318C15.7983 10.1818 15.1165 10.5682 14.2301 10.5682C12.9006 10.5682 12.0199 9.69318 12.0028 8.19886H18.0824V7.56818C18.0824 4.50568 16.2415 3.15909 14.0938 3.15909C11.5938 3.15909 9.96307 4.99432 9.96307 7.6875C9.96307 10.4261 11.571 12.1705 14.2017 12.1705ZM12.0085 6.8125C12.071 5.69886 12.8949 4.76136 14.1222 4.76136C15.304 4.76136 16.0994 5.625 16.1108 6.8125H12.0085ZM22.3338 12.1761C23.7031 12.1761 24.5213 11.5341 24.8963 10.8011H24.9645V12H26.9418V6.15909C26.9418 3.85227 25.0611 3.15909 23.3963 3.15909C21.5611 3.15909 20.152 3.97727 19.6974 5.56818L21.6179 5.84091C21.8224 5.24432 22.402 4.73295 23.4077 4.73295C24.3622 4.73295 24.8849 5.22159 24.8849 6.07955V6.11364C24.8849 6.70455 24.2656 6.73295 22.7259 6.89773C21.0327 7.07955 19.4134 7.58523 19.4134 9.55114C19.4134 11.267 20.669 12.1761 22.3338 12.1761ZM22.8679 10.6648C22.0099 10.6648 21.3963 10.2727 21.3963 9.51705C21.3963 8.72727 22.0838 8.39773 23.0043 8.26705C23.544 8.19318 24.6236 8.05682 24.8906 7.84091V8.86932C24.8906 9.84091 24.1065 10.6648 22.8679 10.6648ZM32.2486 12.1534C33.7486 12.1534 34.4247 11.2614 34.7486 10.625H34.8736V12H36.8963V0.363636H34.8338V4.71591H34.7486C34.4361 4.08523 33.794 3.15909 32.2543 3.15909C30.2372 3.15909 28.652 4.73864 28.652 7.64773C28.652 10.5227 30.1918 12.1534 32.2486 12.1534ZM32.8224 10.4659C31.4645 10.4659 30.7486 9.27273 30.7486 7.63636C30.7486 6.01136 31.4531 4.84659 32.8224 4.84659C34.1463 4.84659 34.8736 5.94318 34.8736 7.63636C34.8736 9.32955 34.1349 10.4659 32.8224 10.4659ZM52.7102 0.363636H50.6136V8.29545H50.5114L45.0341 0.363636H43.1477V12H45.2557V4.07386H45.3523L50.8352 12H52.7102V0.363636ZM58.723 12.1705C61.2798 12.1705 62.9048 10.3693 62.9048 7.67045C62.9048 4.96591 61.2798 3.15909 58.723 3.15909C56.1662 3.15909 54.5412 4.96591 54.5412 7.67045C54.5412 10.3693 56.1662 12.1705 58.723 12.1705ZM58.7344 10.5227C57.3196 10.5227 56.6264 9.26136 56.6264 7.66477C56.6264 6.06818 57.3196 4.78977 58.7344 4.78977C60.1264 4.78977 60.8196 6.06818 60.8196 7.66477C60.8196 9.26136 60.1264 10.5227 58.7344 10.5227ZM66.2173 12H68.3651L70.0014 6.10227H70.1207L71.7571 12H73.8991L76.3707 3.27273H74.2685L72.7571 9.375H72.6719L71.1037 3.27273H69.0298L67.4616 9.40909H67.3821L65.848 3.27273H63.7514L66.2173 12Z" fill="#503AE7"/>
</svg>
