<svg width="174" height="32" viewBox="0 0 174 32" fill="none" xmlns="http://www.w3.org/2000/svg">
<g clip-path="url(#clip0_2_299)">
<path d="M47.2427 15.4002C45.094 14.8842 44.4993 14.6168 44.4993 13.7568C44.4993 12.8968 44.9981 12.5337 46.4177 12.5337C47.0021 12.5373 47.5791 12.6634 48.1112 12.9037C48.6435 13.1441 49.1188 13.4933 49.5066 13.9288L51.425 12.0177C50.8057 11.3406 50.0497 10.8016 49.2067 10.4361C48.3635 10.0705 47.4524 9.88667 46.5329 9.89654C43.847 9.89654 41.6599 11.4062 41.6599 13.8714C41.6599 16.3366 43.4057 17.3495 45.9189 17.9419C48.4322 18.5343 48.9693 18.9165 48.9693 19.853C48.9693 20.7894 48.202 21.3244 46.5905 21.3244C45.928 21.3386 45.2708 21.2052 44.6668 20.9341C44.0627 20.663 43.527 20.261 43.0988 19.7574L41.1803 21.5155C41.813 22.3152 42.6297 22.9515 43.5614 23.3706C44.493 23.7898 45.5122 23.9794 46.5329 23.9234C50.2548 23.9234 51.8855 22.1844 51.8855 19.5854C51.8088 16.6424 49.4106 15.8971 47.2427 15.4002ZM59.8089 9.89654C56.087 9.89654 53.8807 12.7631 53.8807 16.9099C53.8807 21.0568 56.087 23.9234 59.8089 23.9234C63.5308 23.9234 65.7179 21.0568 65.7179 16.9099C65.7179 12.7631 63.5499 9.89654 59.8089 9.89654ZM59.8089 21.2288C57.6218 21.2288 56.701 19.3178 56.701 16.9099C56.701 14.502 57.6218 12.5911 59.8089 12.5911C61.9959 12.5911 62.936 14.502 62.936 16.9099C62.936 19.3178 62.0152 21.2288 59.8089 21.2288ZM76.7684 17.7509C76.7684 19.9294 75.6941 21.2671 73.9675 21.2671C72.2408 21.2671 71.1664 19.8912 71.1664 17.7125V10.0685H68.4421V17.7125C68.4421 21.6684 70.6676 23.8852 73.9675 23.8852C77.2672 23.8852 79.4927 21.6111 79.4927 17.6743V10.0302H76.7684V17.7509ZM91.2723 15.8589V18.8401C91.0996 18.477 90.6584 17.8081 90.3322 17.2921L85.4784 10.1067H82.9843V23.7132H85.6895V17.7317V14.7505C85.8621 15.0944 86.3034 15.7824 86.6295 16.2984L91.656 23.7132H94.0924V10.1067H91.2723V15.8589ZM101.747 10.1067H97.4882V23.7132H101.555C102.478 23.7856 103.405 23.6605 104.275 23.3463C105.145 23.0321 105.937 22.5361 106.598 21.8917C107.26 21.2473 107.775 20.4693 108.11 19.61C108.444 18.7508 108.591 17.8302 108.539 16.9099C108.539 11.9413 105.661 10.1067 101.747 10.1067ZM101.555 21.076H100.251V12.7439H101.69C104.587 12.7439 105.776 14.139 105.776 16.9099C105.831 17.4738 105.758 18.0427 105.564 18.5753C105.371 19.1079 105.062 19.5911 104.658 19.9897C104.253 20.3885 103.765 20.6928 103.229 20.8806C102.692 21.0685 102.121 21.1352 101.555 21.076ZM116.981 12.5911C117.5 12.5635 118.017 12.6905 118.464 12.9559C118.911 13.2213 119.27 13.6131 119.494 14.0816L122.026 12.9159C121.597 11.9667 120.888 11.1698 119.993 10.6307C119.1 10.0915 118.062 9.83549 117.019 9.89654C113.469 9.89654 110.956 12.7631 110.956 16.9099C110.956 21.0568 113.354 23.9234 116.923 23.9234C117.981 23.9835 119.032 23.7213 119.936 23.1717C120.841 22.6221 121.557 21.8111 121.988 20.8466L119.685 19.4898C119.459 20.0107 119.084 20.4535 118.605 20.7628C118.127 21.0721 117.569 21.2342 117 21.2288C114.966 21.2288 113.777 19.3178 113.777 16.9099C113.777 14.502 114.946 12.5911 116.981 12.5911ZM127.109 10.1067H124.386V23.7132H132.597V21.0378H127.109V10.1067ZM139.791 9.89654C136.07 9.89654 133.863 12.7631 133.863 16.9099C133.863 21.0568 136.07 23.9234 139.791 23.9234C143.513 23.9234 145.719 21.0568 145.719 16.9099C145.719 12.7631 143.513 9.89654 139.791 9.89654ZM139.791 21.2288C137.584 21.2288 136.664 19.3178 136.664 16.9099C136.664 14.502 137.584 12.5911 139.791 12.5911C141.997 12.5911 142.899 14.502 142.899 16.9099C142.899 19.3178 141.997 21.2288 139.791 21.2288ZM156.731 17.7509C156.731 19.9294 155.676 21.2671 153.931 21.2671C152.185 21.2671 151.149 19.8912 151.149 17.7125V10.0685H148.405V17.7125C148.405 21.6684 150.631 23.8852 153.931 23.8852C157.23 23.8852 159.475 21.6111 159.475 17.6743V10.0302H156.731V17.7509ZM167.149 10.1067H162.89V23.7132H166.957C167.879 23.7856 168.807 23.6605 169.676 23.3463C170.547 23.0321 171.339 22.5361 172 21.8917C172.662 21.2473 173.177 20.4693 173.511 19.61C173.847 18.7508 173.992 17.8302 173.94 16.9099C173.94 11.9413 171.062 10.1067 167.149 10.1067ZM166.957 21.076H165.614V12.7439H167.052C169.949 12.7439 171.139 14.139 171.139 16.9099C171.193 17.4703 171.121 18.0355 170.93 18.565C170.738 19.0947 170.432 19.5756 170.033 19.9736C169.633 20.3716 169.151 20.6768 168.618 20.8674C168.087 21.0579 167.519 21.1292 166.957 21.076Z" fill="#14142B"/>
<path d="M33.3053 16C33.3053 24.8889 25.8809 32 16.8933 32C7.90581 32 0.351074 24.8889 0.351074 16C0.351074 7.11112 7.77555 0 16.763 0C25.7506 0 33.3053 7.11112 33.3053 16Z" fill="url(#paint0_linear_2_299)"/>
<path d="M4.3576 17.1931C4.36442 17.1355 4.40629 17.0951 4.45904 17.0951C4.50987 17.0951 4.55199 17.1354 4.55989 17.1928L4.77901 18.5838L4.55989 19.951C4.55174 20.0084 4.51013 20.0483 4.45904 20.0483C4.40627 20.0483 4.36442 20.0082 4.3576 19.9505L4.17273 18.5838L4.3576 17.1931Z" fill="white"/>
<path d="M5.39228 16.2343C5.44557 16.2343 5.48879 16.2755 5.49751 16.3352L5.77995 18.5838L5.49723 20.7831C5.48854 20.8426 5.44529 20.8841 5.39228 20.8841C5.33847 20.8841 5.29414 20.8415 5.28707 20.7826L5.03857 18.5838L5.28707 16.3352C5.2944 16.2769 5.33872 16.2343 5.39228 16.2343Z" fill="white"/>
<path d="M9.21697 14.4488C9.22176 14.3438 9.30615 14.2611 9.408 14.2611C9.50946 14.2611 9.59345 14.3438 9.59944 14.4488L9.82323 18.5857L9.59944 21.2594V21.2586C9.59345 21.3633 9.50946 21.446 9.408 21.446C9.30615 21.446 9.22206 21.3636 9.21697 21.2591L9.01904 18.5857L9.21697 14.4488Z" fill="white"/>
<path d="M7.2355 15.8435C7.24178 15.7608 7.30568 15.699 7.38397 15.699C7.46145 15.699 7.52533 15.7608 7.53215 15.8429L7.78553 18.5845L7.53215 21.2365C7.52533 21.3186 7.46145 21.3805 7.38397 21.3805C7.30565 21.3805 7.24149 21.3186 7.2355 21.2365L7.01257 18.5845L7.2355 15.8435Z" fill="white"/>
<path d="M11.6993 21.2155C11.6941 21.3447 11.5913 21.4457 11.4649 21.4457C11.3377 21.4457 11.2346 21.3445 11.2305 21.2163L11.0585 18.5867L11.2305 13.0796C11.2347 12.9504 11.3377 12.8491 11.4652 12.8491C11.5916 12.8491 11.6944 12.9501 11.6996 13.0793L11.8934 18.5869L11.6993 21.2155Z" fill="white"/>
<path d="M15.9968 21.1417C15.9936 21.3162 15.85 21.4582 15.676 21.4582C15.502 21.4582 15.3579 21.3162 15.3552 21.1433C15.3552 21.1433 15.2341 18.5906 15.2341 18.5865L15.3552 12.2279C15.3579 12.0532 15.5017 11.9114 15.6759 11.9114C15.85 11.9114 15.9938 12.0534 15.9968 12.2277L16.1322 18.5887L15.9968 21.1417Z" fill="white"/>
<path d="M13.8321 21.1744C13.828 21.3278 13.7059 21.4482 13.5545 21.4482C13.4019 21.4482 13.2799 21.3278 13.2766 21.176L13.1298 18.5879L13.2764 13.04C13.2796 12.8866 13.4017 12.7665 13.5542 12.7665C13.7057 12.7665 13.8277 12.8866 13.8318 13.04L13.9968 18.5876L13.8321 21.1763V21.1744Z" fill="white"/>
<path d="M8.56174 21.2587C8.55495 21.3525 8.48205 21.424 8.39208 21.424C8.3007 21.424 8.22812 21.3525 8.22214 21.2584L8.01196 18.5846L8.22214 16.042C8.22784 15.9475 8.3007 15.8761 8.39208 15.8761C8.48235 15.8761 8.55515 15.947 8.56174 16.0409L8.80041 18.5846L8.56174 21.2587Z" fill="white"/>
<path d="M6.51075 21.1549C6.50313 21.226 6.44985 21.2775 6.38408 21.2775C6.31717 21.2775 6.26389 21.2257 6.25734 21.1544L6.02136 18.5841L6.25734 15.9163C6.26414 15.8451 6.31743 15.7935 6.38405 15.7935C6.44983 15.7935 6.50311 15.8449 6.511 15.9163L6.77881 18.5841L6.51075 21.1549Z" fill="white"/>
<path d="M14.3115 13.2432C14.3147 13.0772 14.4467 12.9478 14.6111 12.9478C14.7753 12.9478 14.9064 13.0772 14.9102 13.2426L15.0603 18.5884L14.9102 21.1603V21.1582C14.9064 21.324 14.7753 21.4533 14.6111 21.4533C14.4464 21.4533 14.3148 21.3238 14.3115 21.1601L14.1777 18.5881L14.3115 13.2432Z" fill="white"/>
<path d="M10.6455 21.2421C10.6401 21.3592 10.5463 21.451 10.4326 21.451C10.3179 21.451 10.2244 21.3592 10.2198 21.2432L10.0347 18.5864L10.2195 13.5033C10.2244 13.3862 10.3179 13.2944 10.4326 13.2944C10.5463 13.2944 10.6398 13.3859 10.6455 13.5033L10.8543 18.5864L10.6455 21.2421Z" fill="white"/>
<path d="M12.7615 21.2005V21.2001C12.7564 21.3406 12.6445 21.4508 12.5056 21.4508C12.3661 21.4508 12.2536 21.3402 12.2498 21.2002L12.0902 18.587L12.2495 12.8941C12.2533 12.7525 12.3658 12.6418 12.5056 12.6418C12.6445 12.6418 12.7571 12.7528 12.7615 12.8941L12.9408 18.5873L12.7615 21.1991V21.2001C12.7615 21.1999 12.7615 21.1996 12.7615 21.1994V21.2005Z" fill="white"/>
<path d="M25.112 15.5447C25.4818 15.391 25.8877 15.3056 26.3131 15.3056C28.0279 15.3056 29.4179 16.6847 29.418 18.3857C29.418 20.0866 28.0276 21.4654 26.3129 21.4654C26.2574 21.4654 17.7135 21.4611 17.7056 21.4603C17.5201 21.4418 17.3727 21.2847 17.3702 21.0963V11.3222C17.3724 11.1426 17.4349 11.05 17.6692 10.9601C18.2721 10.7288 18.955 10.592 19.6555 10.592C22.5181 10.592 24.8649 12.7692 25.112 15.5447Z" fill="white"/>
<path d="M16.3934 11.652C16.3961 11.4654 16.5494 11.3136 16.7362 11.3136C16.9224 11.3136 17.0757 11.4654 17.0784 11.6515L17.231 18.5895L17.0784 21.1075V21.1046C17.0757 21.2912 16.9224 21.4428 16.7362 21.4428C16.5494 21.4428 16.3961 21.2912 16.3937 21.1073L16.2531 18.5895L16.3934 11.652Z" fill="white"/>
</g>
<defs>
<linearGradient id="paint0_linear_2_299" x1="16.8282" y1="0" x2="16.8282" y2="32" gradientUnits="userSpaceOnUse">
<stop stop-color="#FF7602"/>
<stop offset="1" stop-color="#FF3502"/>
</linearGradient>
<clipPath id="clip0_2_299">
<rect width="174" height="32" fill="white"/>
</clipPath>
</defs>
</svg>
