<svg width="196" height="31" viewBox="0 0 196 31" fill="none" xmlns="http://www.w3.org/2000/svg">
<path fill-rule="evenodd" clip-rule="evenodd" d="M118.251 20.8658H116.332V6.20215H121.421C122.686 6.20215 123.781 6.61516 124.705 7.44114C125.63 8.26718 126.092 9.30822 126.092 10.5643C126.092 11.8205 125.63 12.8615 124.705 13.6875C123.781 14.5136 122.686 14.9266 121.421 14.9266H118.251V20.8658ZM118.251 13.1244H121.462C122.269 13.1244 122.916 12.8581 123.402 12.3257C123.889 11.7931 124.132 11.206 124.132 10.5643C124.132 9.92266 123.889 9.33555 123.402 8.80311C122.916 8.27057 122.269 8.0044 121.462 8.0044H118.251V13.1244ZM127.684 12.039C128.671 11.0149 129.929 10.5029 131.458 10.5029C132.988 10.5029 134.246 11.0115 135.233 12.0287C136.22 13.0459 136.714 14.319 136.714 15.8481C136.714 17.3773 136.22 18.6505 135.233 19.6677C134.246 20.6849 132.988 21.1934 131.458 21.1934C129.929 21.1934 128.671 20.6849 127.684 19.6677C126.697 18.6505 126.203 17.3773 126.203 15.8481C126.203 14.319 126.697 13.0493 127.684 12.039ZM129.102 18.4901C129.769 19.1454 130.555 19.4732 131.458 19.4732C132.362 19.4732 133.144 19.142 133.805 18.4798C134.465 17.8177 134.795 16.9405 134.795 15.8481C134.795 14.7559 134.465 13.8787 133.805 13.2165C133.144 12.5543 132.362 12.2232 131.458 12.2232C130.555 12.2232 129.772 12.5543 129.112 13.2165C128.452 13.8787 128.122 14.7559 128.122 15.8481C128.122 16.9405 128.448 17.8211 129.102 18.4901ZM142.497 21.1934C141.176 21.1934 140.036 20.6814 139.077 19.6574C138.118 18.6334 137.637 17.3636 137.637 15.8481C137.637 14.3326 138.118 13.0629 139.077 12.039C140.036 11.0149 141.176 10.5029 142.497 10.5029C143.275 10.5029 143.974 10.6668 144.593 10.9944C145.212 11.3221 145.674 11.7317 145.98 12.2232H146.063L145.98 10.8306V6.20215H147.899V20.8658H146.063V19.4732H145.98C145.674 19.9646 145.212 20.3742 144.593 20.7019C143.974 21.0296 143.275 21.1934 142.497 21.1934ZM142.81 19.4732C143.713 19.4732 144.482 19.1454 145.114 18.4901C145.747 17.8347 146.063 16.9541 146.063 15.8481C146.063 14.7423 145.747 13.8616 145.114 13.2063C144.482 12.5509 143.713 12.2232 142.81 12.2232C141.92 12.2232 141.155 12.5543 140.516 13.2165C139.876 13.8787 139.556 14.7559 139.556 15.8481C139.556 16.9405 139.876 17.8177 140.516 18.4798C141.155 19.142 141.92 19.4732 142.81 19.4732ZM154.557 21.1934C153.029 21.1934 151.77 20.6849 150.783 19.6677C149.796 18.6505 149.302 17.3773 149.302 15.8481C149.302 14.319 149.796 13.0459 150.783 12.0287C151.77 11.0115 153.029 10.5029 154.557 10.5029C155.698 10.5029 156.643 10.7759 157.394 11.3221C158.145 11.8683 158.694 12.5577 159.041 13.3906L157.29 14.1074C156.761 12.8512 155.809 12.2232 154.433 12.2232C153.585 12.2232 152.837 12.5646 152.191 13.2472C151.544 13.9299 151.221 14.7968 151.221 15.8481C151.221 16.8994 151.544 17.7665 152.191 18.4491C152.837 19.1318 153.585 19.4732 154.433 19.4732C155.865 19.4732 156.852 18.845 157.394 17.589L159.104 18.3057C158.756 19.125 158.197 19.8111 157.425 20.3639C156.653 20.9169 155.698 21.1934 154.557 21.1934ZM163.656 21.1934C162.572 21.1934 161.665 20.8862 160.935 20.2719C160.205 19.6574 159.84 18.845 159.84 17.8347C159.84 16.7424 160.271 15.8857 161.133 15.2645C161.995 14.6433 163.059 14.3326 164.324 14.3326C165.45 14.3326 166.374 14.5374 167.097 14.9471V14.6603C167.097 13.9231 166.841 13.3326 166.326 12.8888C165.811 12.4451 165.179 12.2232 164.429 12.2232C163.872 12.2232 163.368 12.3529 162.916 12.6124C162.465 12.8718 162.155 13.2267 161.988 13.6773L160.236 12.94C160.472 12.3392 160.939 11.783 161.634 11.271C162.329 10.7589 163.246 10.5029 164.386 10.5029C165.693 10.5029 166.778 10.8784 167.64 11.6293C168.502 12.3802 168.933 13.4383 168.933 14.8037V20.8658H167.097V19.4732H167.014C166.249 20.62 165.13 21.1934 163.656 21.1934ZM163.969 19.4732C164.762 19.4732 165.481 19.1829 166.128 18.6027C166.774 18.0225 167.097 17.3364 167.097 16.5445C166.556 16.1076 165.742 15.8891 164.657 15.8891C163.726 15.8891 163.024 16.0871 162.551 16.483C162.079 16.879 161.842 17.3432 161.842 17.8756C161.842 18.3672 162.058 18.7564 162.489 19.0431C162.92 19.3298 163.413 19.4732 163.969 19.4732ZM174.549 21.1934C173.409 21.1934 172.467 20.9203 171.723 20.3742C170.979 19.8281 170.433 19.1454 170.086 18.3263L171.796 17.6299C172.339 18.886 173.263 19.5141 174.57 19.5141C175.168 19.5141 175.658 19.3844 176.04 19.125C176.423 18.8656 176.614 18.5242 176.614 18.101C176.614 17.4456 176.148 17.0019 175.216 16.7698L173.151 16.2782C172.498 16.1144 171.879 15.8038 171.295 15.3464C170.712 14.889 170.42 14.2713 170.42 13.493C170.42 12.6055 170.819 11.8853 171.619 11.3323C172.418 10.7794 173.367 10.5029 174.466 10.5029C175.369 10.5029 176.176 10.7043 176.885 11.1071C177.594 11.5099 178.102 12.0867 178.408 12.8377L176.739 13.5135C176.363 12.626 175.585 12.1823 174.403 12.1823C173.833 12.1823 173.353 12.2983 172.964 12.5304C172.574 12.7625 172.38 13.0766 172.38 13.4725C172.38 14.0459 172.832 14.4351 173.736 14.6399L175.759 15.1109C176.718 15.3294 177.427 15.7048 177.886 16.2373C178.345 16.7698 178.574 17.3705 178.574 18.0395C178.574 18.9406 178.199 19.6915 177.448 20.2923C176.698 20.8931 175.731 21.1934 174.549 21.1934ZM184.316 21.0296C183.245 21.0296 182.428 20.7497 181.865 20.19C181.301 19.6301 181.02 18.8383 181.02 17.8143V12.5509H179.227V10.8306H181.02V7.75858H182.939V10.8306H185.442V12.5509H182.939V17.6709C182.939 18.7631 183.398 19.3092 184.316 19.3092C184.663 19.3092 184.955 19.2547 185.191 19.1454L185.859 20.7633C185.442 20.9409 184.927 21.0296 184.316 21.0296ZM191.036 21.1934C189.896 21.1934 188.955 20.9203 188.211 20.3742C187.467 19.8281 186.921 19.1454 186.574 18.3263L188.284 17.6299C188.826 18.886 189.75 19.5141 191.058 19.5141C191.656 19.5141 192.145 19.3844 192.528 19.125C192.911 18.8656 193.101 18.5242 193.101 18.101C193.101 17.4456 192.636 17.0019 191.704 16.7698L189.639 16.2782C188.986 16.1144 188.367 15.8038 187.783 15.3464C187.199 14.889 186.907 14.2713 186.907 13.493C186.907 12.6055 187.307 11.8853 188.107 11.3323C188.906 10.7794 189.855 10.5029 190.954 10.5029C191.857 10.5029 192.664 10.7043 193.373 11.1071C194.082 11.5099 194.59 12.0867 194.895 12.8377L193.227 13.5135C192.851 12.626 192.073 12.1823 190.89 12.1823C190.32 12.1823 189.841 12.2983 189.452 12.5304C189.062 12.7625 188.868 13.0766 188.868 13.4725C188.868 14.0459 189.319 14.4351 190.224 14.6399L192.246 15.1109C193.206 15.3294 193.915 15.7048 194.374 16.2373C194.832 16.7698 195.062 17.3705 195.062 18.0395C195.062 18.9406 194.686 19.6915 193.936 20.2923C193.185 20.8931 192.219 21.1934 191.036 21.1934Z" fill="white"/>
<path d="M43.4656 12.7869C43.4656 8.14696 47.425 4.38696 52.15 4.38696C54.757 4.38696 56.6145 5.39496 58.0158 6.70695L56.3538 8.32295C55.3599 7.39494 54.0075 6.67496 52.15 6.67496C48.7121 6.67496 46.0237 9.39491 46.0237 12.7709C46.0237 16.1469 48.7121 18.8669 52.15 18.8669C54.3823 18.8669 55.6532 17.9869 56.4679 17.1869C57.1359 16.5309 57.5759 15.587 57.7387 14.3069H52.15V12.0189H60.0198C60.1013 12.4349 60.1502 12.9149 60.1502 13.4589C60.1502 15.1869 59.6777 17.3149 58.1298 18.8189C56.6145 20.3549 54.6919 21.1708 52.15 21.1708C47.425 21.1708 43.4656 17.4109 43.4656 12.7869ZM66.4232 10.467C69.4701 10.467 71.9467 12.7389 71.9467 15.8749C71.9467 18.9949 69.4701 21.2829 66.4232 21.2829C63.3763 21.2829 60.8997 18.9949 60.8997 15.8749C60.8997 12.7389 63.3763 10.467 66.4232 10.467ZM66.4232 19.1388C68.0852 19.1388 69.5353 17.7949 69.5353 15.8589C69.5353 13.9069 68.0852 12.579 66.4232 12.579C64.745 12.579 63.3112 13.9069 63.3112 15.8589C63.3112 17.7949 64.7613 19.1388 66.4232 19.1388ZM78.4805 10.467C81.5273 10.467 84.004 12.7389 84.004 15.8749C84.004 18.9949 81.5273 21.2829 78.4805 21.2829C75.4335 21.2829 72.957 18.9949 72.957 15.8749C72.957 12.7389 75.4335 10.467 78.4805 10.467ZM78.4805 19.1388C80.1424 19.1388 81.5925 17.7949 81.5925 15.8589C81.5925 13.9069 80.1587 12.579 78.4805 12.579C76.8022 12.579 75.3684 13.9069 75.3684 15.8589C75.3684 17.7949 76.8185 19.1388 78.4805 19.1388ZM93.275 10.643H95.5887V20.3549C95.5887 24.3549 93.1935 25.9868 90.3584 25.9868C87.6863 25.9868 86.0732 24.2269 85.4704 22.7869L87.5722 21.9229C87.947 22.8029 88.8595 23.8429 90.3421 23.8429C92.1507 23.8429 93.275 22.7389 93.275 20.6749V19.8909H93.1935C92.6558 20.5469 91.613 21.1229 90.2932 21.1229C87.5397 21.1229 85.0142 18.7549 85.0142 15.7309C85.0142 12.6749 87.5397 10.307 90.2932 10.307C91.613 10.307 92.6558 10.8829 93.1935 11.523H93.275V10.643ZM90.505 18.9949C92.1507 18.9949 93.4542 17.6349 93.4379 15.7309C93.4379 13.8269 92.1507 12.4349 90.505 12.4349C88.8431 12.4349 87.4419 13.8269 87.4419 15.7309C87.4419 17.6189 88.8431 18.9949 90.505 18.9949ZM97.2344 20.9148V5.02696H99.6455V20.9148H97.2344ZM106.278 19.1388C107.515 19.1388 108.362 18.5468 108.998 17.6509L110.872 18.8829C110.253 19.7629 108.803 21.2829 106.278 21.2829C103.148 21.2829 100.819 18.8989 100.819 15.8749C100.819 12.6589 103.182 10.467 106.017 10.467C108.868 10.467 110.269 12.6909 110.725 13.9069L110.97 14.5149L103.605 17.5069C104.176 18.5789 105.039 19.1388 106.278 19.1388ZM106.098 12.5469C104.86 12.5469 103.148 13.6189 103.214 15.6989L108.135 13.6989C107.874 13.011 107.059 12.5469 106.098 12.5469Z" fill="white"/>
<path d="M14.6196 8V12.8492V14.7874V19.6364H18.6931V14.7874V12.8492V8H14.6196Z" fill="#FF7602"/>
<path d="M2.40343 14.9124C3.52828 14.9124 4.44015 14.0169 4.44015 12.9124C4.44015 11.8078 3.52828 10.9124 2.40343 10.9124C1.27857 10.9124 0.366699 11.8078 0.366699 12.9124C0.366699 14.0169 1.27857 14.9124 2.40343 14.9124Z" fill="#0066D9"/>
<path d="M2.40343 17.0944C3.52828 17.0944 4.44015 16.199 4.44015 15.0944C4.44015 13.9898 3.52828 13.0944 2.40343 13.0944C1.27857 13.0944 0.366699 13.9898 0.366699 15.0944C0.366699 16.199 1.27857 17.0944 2.40343 17.0944Z" fill="#0066D9"/>
<path d="M4.44015 12.9127H0.366699V15.0945H4.44015V12.9127Z" fill="#0066D9"/>
<path d="M30.9168 17.0944C32.0417 17.0944 32.9535 16.199 32.9535 15.0944C32.9535 13.9898 32.0417 13.0944 30.9168 13.0944C29.792 13.0944 28.8801 13.9898 28.8801 15.0944C28.8801 16.199 29.792 17.0944 30.9168 17.0944Z" fill="#4285F4"/>
<path d="M30.9168 14.9124C32.0417 14.9124 32.9535 14.0169 32.9535 12.9124C32.9535 11.8078 32.0417 10.9124 30.9168 10.9124C29.792 10.9124 28.8801 11.8078 28.8801 12.9124C28.8801 14.0169 29.792 14.9124 30.9168 14.9124Z" fill="#4285F4"/>
<path d="M28.8801 15.0948H32.9535V12.913H28.8801V15.0948Z" fill="#4285F4"/>
<path d="M9.43857 21.4583C10.5634 21.4583 11.4753 20.5628 11.4753 19.4583C11.4753 18.3537 10.5634 17.4583 9.43857 17.4583C8.31372 17.4583 7.40186 18.3537 7.40186 19.4583C7.40186 20.5628 8.31372 21.4583 9.43857 21.4583Z" fill="#EA4335"/>
<path d="M9.43857 23.6402C10.5634 23.6402 11.4753 22.7448 11.4753 21.6402C11.4753 20.5357 10.5634 19.6401 9.43857 19.6401C8.31372 19.6401 7.40186 20.5357 7.40186 21.6402C7.40186 22.7448 8.31372 23.6402 9.43857 23.6402Z" fill="#EA4335"/>
<path d="M11.4753 19.4586H7.40186V21.6404H11.4753V19.4586Z" fill="#EA4335"/>
<path d="M9.43857 8.36717C10.5634 8.36717 11.4753 7.47174 11.4753 6.3672C11.4753 5.26262 10.5634 4.36719 9.43857 4.36719C8.31372 4.36719 7.40186 5.26262 7.40186 6.3672C7.40186 7.47174 8.31372 8.36717 9.43857 8.36717Z" fill="#EA4335"/>
<path d="M9.43857 15.4578C10.5634 15.4578 11.4753 14.5624 11.4753 13.4578C11.4753 12.3532 10.5634 11.4578 9.43857 11.4578C8.31372 11.4578 7.40186 12.3532 7.40186 13.4578C7.40186 14.5624 8.31372 15.4578 9.43857 15.4578Z" fill="#EA4335"/>
<path d="M11.4753 6.36694H7.40186V13.5034H11.4753V6.36694Z" fill="#EA4335"/>
<path d="M23.8809 10.5491C25.0058 10.5491 25.9176 9.65367 25.9176 8.54909C25.9176 7.44451 25.0058 6.54907 23.8809 6.54907C22.7561 6.54907 21.8442 7.44451 21.8442 8.54909C21.8442 9.65367 22.7561 10.5491 23.8809 10.5491Z" fill="#34A853"/>
<path d="M23.8809 8.36717C25.0058 8.36717 25.9176 7.47174 25.9176 6.3672C25.9176 5.26262 25.0058 4.36719 23.8809 4.36719C22.7561 4.36719 21.8442 5.26262 21.8442 6.3672C21.8442 7.47174 22.7561 8.36717 23.8809 8.36717Z" fill="#34A853"/>
<path d="M21.844 8.54888H25.9175V6.36707H21.844V8.54888Z" fill="#34A853"/>
<path d="M16.6598 4.18545C17.7847 4.18545 18.6965 3.29002 18.6965 2.18544C18.6965 1.08086 17.7847 0.185425 16.6598 0.185425C15.5349 0.185425 14.623 1.08086 14.623 2.18544C14.623 3.29002 15.5349 4.18545 16.6598 4.18545Z" fill="#FF7602"/>
<path d="M16.6598 30.0034C17.7847 30.0034 18.6965 29.108 18.6965 28.0034C18.6965 26.8988 17.7847 26.0034 16.6598 26.0034C15.5349 26.0034 14.623 26.8988 14.623 28.0034C14.623 29.108 15.5349 30.0034 16.6598 30.0034Z" fill="#FF7602"/>
<path d="M16.6598 27.8219C17.7847 27.8219 18.6965 26.9265 18.6965 25.8219C18.6965 24.7173 17.7847 23.8219 16.6598 23.8219C15.5349 23.8219 14.623 24.7173 14.623 25.8219C14.623 26.9265 15.5349 27.8219 16.6598 27.8219Z" fill="#FF7602"/>
<path d="M14.623 28.0036H18.6965V25.8218H14.623V28.0036Z" fill="#FF7602"/>
<path d="M23.8809 23.6402C25.0058 23.6402 25.9176 22.7448 25.9176 21.6402C25.9176 20.5357 25.0058 19.6401 23.8809 19.6401C22.7561 19.6401 21.8442 20.5357 21.8442 21.6402C21.8442 22.7448 22.7561 23.6402 23.8809 23.6402Z" fill="#34A853"/>
<path d="M23.8809 16.5491C25.0058 16.5491 25.9176 15.6537 25.9176 14.5491C25.9176 13.4445 25.0058 12.5491 23.8809 12.5491C22.7561 12.5491 21.8442 13.4445 21.8442 14.5491C21.8442 15.6537 22.7561 16.5491 23.8809 16.5491Z" fill="#34A853"/>
<path d="M21.844 21.6401H25.9175V14.5491H21.844V21.6401Z" fill="#34A853"/>
<path d="M16.6598 10.1854C17.7847 10.1854 18.6965 9.28985 18.6965 8.18536C18.6965 7.08078 17.7847 6.1853 16.6598 6.1853C15.5349 6.1853 14.623 7.08078 14.623 8.18536C14.623 9.28985 15.5349 10.1854 16.6598 10.1854Z" fill="#FF7602"/>
<path d="M16.6598 21.822C17.7847 21.822 18.6965 20.9266 18.6965 19.822C18.6965 18.7175 17.7847 17.822 16.6598 17.822C15.5349 17.822 14.623 18.7175 14.623 19.822C14.623 20.9266 15.5349 21.822 16.6598 21.822Z" fill="#FF7602"/>
</svg>
